<svg width="500" height="500" viewBox="0 0 500 500" fill="none" xmlns="http://www.w3.org/2000/svg">
<path d="M82.9199 253.76C-9.35307 307.034 -9.35107 393.408 82.9249 446.683C175.201 499.957 324.807 499.957 417.08 446.683C509.353 393.409 509.351 307.035 417.075 253.76C324.799 200.486 175.193 200.486 82.9199 253.76Z" fill="#E4E4E4"/>
<path d="M64.2559 395.134L21.0029 370.206C19.9969 369.625 19.9959 368.682 21.0009 368.099L127.898 306.159C128.903 305.576 130.533 305.575 131.538 306.156L174.791 331.084C175.797 331.665 175.798 332.608 174.793 333.191L67.8959 395.131C66.8919 395.714 65.2619 395.715 64.2559 395.134Z" fill="#E6E6E6"/>
<path d="M448.595 390.22C461.47 397.738 461.47 409.926 448.595 417.443C435.719 424.96 414.844 424.96 401.968 417.443C389.093 409.926 389.093 397.738 401.969 390.22C414.844 382.703 435.72 382.703 448.595 390.22Z" fill="#D0D0D0"/>
<path d="M160.345 457.013C196.03 457.013 224.958 440.311 224.958 419.709C224.958 399.106 196.03 382.405 160.345 382.405C124.66 382.405 95.7319 399.106 95.7319 419.709C95.7319 440.311 124.66 457.013 160.345 457.013Z" fill="#D0D0D0"/>
<path d="M405.5 406.635C394.918 395.716 388.702 361.294 399.024 352.633H451.542C461.861 361.291 455.652 395.698 445.075 406.624C444.985 406.726 444.881 406.824 444.786 406.925C444.665 407.046 444.543 407.168 444.421 407.285C444.122 407.578 443.805 407.864 443.464 408.145C443.38 408.216 443.295 408.278 443.21 408.346C442.951 408.551 442.695 408.758 442.412 408.956C441.961 409.28 441.506 409.581 441.044 409.84C432.339 414.922 418.226 414.922 409.522 409.84H409.521H409.52C409.055 409.579 408.596 409.275 408.143 408.949C407.879 408.764 407.642 408.572 407.4 408.381C407.296 408.298 407.191 408.22 407.087 408.133C406.758 407.861 406.453 407.585 406.164 407.303C406.023 407.169 405.883 407.027 405.744 406.887C405.665 406.803 405.577 406.721 405.5 406.635Z" fill="#C8C8C8"/>
<path d="M446.981 349.145C458.964 356.141 458.963 367.484 446.981 374.48C434.998 381.476 415.57 381.476 403.587 374.48C391.605 367.484 391.605 356.141 403.588 349.145C415.571 342.149 434.999 342.149 446.981 349.145Z" fill="#FAFAFA"/>
<path d="M441.217 352.51C450.017 357.648 450.017 365.978 441.217 371.115C432.417 376.253 418.15 376.253 409.35 371.115C400.551 365.978 400.551 357.648 409.351 352.51C418.151 347.372 432.418 347.372 441.217 352.51Z" fill="#C8C8C8"/>
<path d="M409.351 361.34C418.15 356.202 432.418 356.202 441.217 361.34C443.661 362.767 445.401 364.445 446.488 366.228C445.401 368.011 443.661 369.688 441.217 371.116C432.417 376.254 418.15 376.254 409.351 371.116C406.906 369.689 405.166 368.012 404.079 366.228C405.166 364.445 406.906 362.767 409.351 361.34Z" fill="white"/>
<path d="M418.095 310.854C414.551 315.335 403.901 317.306 398.593 306.334C393.614 296.043 388.347 286.331 386.767 282.535C385.187 278.739 388.939 277.162 388.939 277.162C388.939 277.162 388.801 271.311 398.98 274.506C409.055 277.669 416.584 283.165 421.629 292.531C426.602 301.763 424.607 309.048 418.095 310.854Z" fill="#C8C8C8"/>
<path d="M423.511 325.483C423.174 323.518 422.76 321.564 422.205 319.649C421.099 315.84 419.705 312.128 418.062 308.519C414.712 301.166 410.303 294.363 405.004 288.264C402.025 284.835 398.805 281.559 395.23 278.745C395.122 278.66 395.06 278.891 395.134 278.96C401.087 284.462 406.407 290.457 410.708 297.35C414.893 304.056 418.221 311.245 420.542 318.804C421.19 320.916 421.818 323.04 422.378 325.177C422.948 327.349 423.345 329.557 423.885 331.735C423.939 331.953 424.291 332.062 424.286 331.759C424.251 329.659 423.864 327.547 423.511 325.483Z" fill="#BBBBBB"/>
<path opacity="0.1" d="M423.511 325.483C423.174 323.518 422.76 321.564 422.205 319.649C421.099 315.84 419.705 312.128 418.062 308.519C414.712 301.166 410.303 294.363 405.004 288.264C402.025 284.835 398.805 281.559 395.23 278.745C395.122 278.66 395.06 278.891 395.134 278.96C401.087 284.462 406.407 290.457 410.708 297.35C414.893 304.056 418.221 311.245 420.542 318.804C421.19 320.916 421.818 323.04 422.378 325.177C422.948 327.349 423.345 329.557 423.885 331.735C423.939 331.953 424.291 332.062 424.286 331.759C424.251 329.659 423.864 327.547 423.511 325.483Z" fill="black"/>
<path d="M429.852 297.653C420.213 298.464 415.052 289.948 419.798 279.407C424.544 268.867 438.841 259.148 442.502 263.405C445.84 261.268 451.657 263.574 452.525 273.169C453.393 282.764 445.758 305.246 429.852 297.653Z" fill="#BBBBBB"/>
<path d="M435.064 273.712C432.313 280.206 430.514 287.177 428.921 294.036C427.292 301.049 426.21 308.174 425.353 315.318C423.695 329.14 423.412 328.373 423.501 342.28C423.525 346.128 423.582 349.976 423.654 353.824C423.729 357.781 423.666 361.791 424.006 365.734C424.136 367.246 426.287 366.844 426.314 365.458C426.45 358.53 426.07 351.573 426 344.642C425.931 337.792 425.954 345.684 426.129 338.835C426.484 324.89 427.502 310.94 429.87 297.181C430.53 293.347 431.26 289.519 432.154 285.731C433.095 281.746 434.248 277.819 435.294 273.862C435.336 273.706 435.154 273.5 435.064 273.712Z" fill="#BBBBBB"/>
<path opacity="0.1" d="M435.064 273.712C432.313 280.206 430.514 287.177 428.921 294.036C427.292 301.049 426.21 308.174 425.353 315.318C423.695 329.14 423.412 328.373 423.501 342.28C423.525 346.128 423.582 349.976 423.654 353.824C423.729 357.781 423.666 361.791 424.006 365.734C424.136 367.246 426.287 366.844 426.314 365.458C426.45 358.53 426.07 351.573 426 344.642C425.931 337.792 425.954 345.684 426.129 338.835C426.484 324.89 427.502 310.94 429.87 297.181C430.53 293.347 431.26 289.519 432.154 285.731C433.095 281.746 434.248 277.819 435.294 273.862C435.336 273.706 435.154 273.5 435.064 273.712Z" fill="black"/>
<path d="M408.255 333.569C407.07 339.552 398.874 343.866 389.405 339.947C379.936 336.028 361.263 311.417 369.791 308.705C369.326 304.236 395.122 300.567 407.882 316.294C417.156 327.727 408.255 333.569 408.255 333.569Z" fill="#BBBBBB"/>
<path d="M421.792 342.45C420.619 340.938 419.304 339.564 417.946 338.219C415.18 335.481 412.279 332.892 409.253 330.444C403.066 325.438 396.338 321.25 389.276 317.6C385.366 315.579 381.357 313.622 377.216 312.116C377.102 312.074 377.146 312.295 377.218 312.328C380.664 313.957 384.115 315.538 387.447 317.398C390.896 319.324 394.233 321.467 397.472 323.727C403.71 328.078 409.622 332.888 415.106 338.159C416.663 339.655 418.145 341.228 419.718 342.708C421.351 344.244 423.108 345.66 424.671 347.268C424.898 347.502 425.305 347.397 425.059 347.057C423.954 345.535 422.949 343.943 421.792 342.45Z" fill="#BBBBBB"/>
<path opacity="0.1" d="M421.792 342.45C420.619 340.938 419.304 339.564 417.946 338.219C415.18 335.481 412.279 332.892 409.253 330.444C403.066 325.438 396.338 321.25 389.276 317.6C385.366 315.579 381.357 313.622 377.216 312.116C377.102 312.074 377.146 312.295 377.218 312.328C380.664 313.957 384.115 315.538 387.447 317.398C390.896 319.324 394.233 321.467 397.472 323.727C403.71 328.078 409.622 332.888 415.106 338.159C416.663 339.655 418.145 341.228 419.718 342.708C421.351 344.244 423.108 345.66 424.671 347.268C424.898 347.502 425.305 347.397 425.059 347.057C423.954 345.535 422.949 343.943 421.792 342.45Z" fill="black"/>
<path d="M431.64 344.416C426.682 342.234 427.625 335.954 435.582 329.559C443.538 323.165 460.515 322.984 460.672 326.356C464.302 327.056 462.108 338.427 452.056 347.321C442.002 356.215 430.771 351.53 431.64 344.416Z" fill="#BBBBBB"/>
<path d="M443.945 335.259C440.071 337.039 436.534 339.225 433.323 342.05C430.134 344.857 427.428 348.128 425.194 351.738C424.939 352.15 425.581 352.949 425.858 352.5C430.221 345.423 436.611 339.301 443.952 335.368C443.999 335.345 444.018 335.225 443.945 335.259Z" fill="#BBBBBB"/>
<path opacity="0.1" d="M443.945 335.259C440.071 337.039 436.534 339.225 433.323 342.05C430.134 344.857 427.428 348.128 425.194 351.738C424.939 352.15 425.581 352.949 425.858 352.5C430.221 345.423 436.611 339.301 443.952 335.368C443.999 335.345 444.018 335.225 443.945 335.259Z" fill="black"/>
<path d="M432.657 355.354C426.908 361.001 433.263 367.998 442.584 371.46C451.905 374.922 462.22 372.584 466.719 370.34C471.217 368.096 472.141 366.97 472.141 366.97C472.141 366.97 469.943 359.558 467.384 355.558C463.784 349.933 455.808 343.228 443.87 344.755C431.93 346.282 430.958 351.244 432.657 355.354Z" fill="#C8C8C8"/>
<path d="M456.785 359.595C452.109 357.342 447.299 355.17 442.172 354.184C437.172 353.222 431.019 353.18 426.971 356.74C425.402 358.12 423.315 361.113 424.592 363.233C424.719 363.444 425.349 363.836 425.49 363.415C425.933 362.092 426.07 360.713 426.776 359.487C427.511 358.212 428.628 357.26 429.902 356.55C433.033 354.807 436.965 354.415 440.491 354.753C446.183 355.298 451.536 357.582 456.775 359.727C456.833 359.751 456.831 359.618 456.785 359.595Z" fill="#BBBBBB"/>
<path opacity="0.1" d="M456.785 359.595C452.109 357.342 447.299 355.17 442.172 354.184C437.172 353.222 431.019 353.18 426.971 356.74C425.402 358.12 423.315 361.113 424.592 363.233C424.719 363.444 425.349 363.836 425.49 363.415C425.933 362.092 426.07 360.713 426.776 359.487C427.511 358.212 428.628 357.26 429.902 356.55C433.033 354.807 436.965 354.415 440.491 354.753C446.183 355.298 451.536 357.582 456.775 359.727C456.833 359.751 456.831 359.618 456.785 359.595Z" fill="black"/>
<path d="M434.234 319.774C432.797 324.825 439.243 329.54 447.262 326.839C455.282 324.138 463.61 321.632 470.447 321.548C477.284 321.464 481.616 316.966 480.209 313.93C478.801 310.894 477.144 303.697 459.726 301.641C442.308 299.584 434.452 305.731 430.815 310.542C427.178 315.35 431.33 320.618 434.234 319.774Z" fill="#C8C8C8"/>
<path d="M466.597 309.158C464.799 308.681 462.829 308.626 460.976 308.644C459.159 308.661 457.34 308.794 455.545 309.089C452.011 309.67 448.578 310.823 445.311 312.272C439.189 314.987 433.114 318.531 429.135 324.046C427.037 326.955 425.213 330.258 424.01 333.642C423.779 334.292 425.039 334.659 425.324 334.077C426.714 331.239 427.919 328.373 429.678 325.726C431.472 323.025 433.689 320.638 436.35 318.776C441.86 314.919 448.244 311.785 454.827 310.321C456.766 309.89 458.737 309.559 460.722 309.453C462.719 309.345 464.657 309.568 466.643 309.675C466.906 309.689 466.783 309.207 466.597 309.158Z" fill="#BBBBBB"/>
<path opacity="0.1" d="M466.597 309.158C464.799 308.681 462.829 308.626 460.976 308.644C459.159 308.661 457.34 308.794 455.545 309.089C452.011 309.67 448.578 310.823 445.311 312.272C439.189 314.987 433.114 318.531 429.135 324.046C427.037 326.955 425.213 330.258 424.01 333.642C423.779 334.292 425.039 334.659 425.324 334.077C426.714 331.239 427.919 328.373 429.678 325.726C431.472 323.025 433.689 320.638 436.35 318.776C441.86 314.919 448.244 311.785 454.827 310.321C456.766 309.89 458.737 309.559 460.722 309.453C462.719 309.345 464.657 309.568 466.643 309.675C466.906 309.689 466.783 309.207 466.597 309.158Z" fill="black"/>
<path d="M419.952 348.245C418.592 343.05 412.008 340.135 403.402 339.492C394.796 338.849 386.498 342.78 381.996 350.478C377.494 358.176 375.625 364.304 378.361 365.31C381.097 366.316 392.659 367.917 400.125 368.58C407.592 369.243 416.91 367.9 422.997 362.227C429.083 356.554 427.077 349.44 419.952 348.245Z" fill="#BBBBBB"/>
<path d="M420.273 347.558C417.351 346.617 413.991 346.783 410.979 347.125C407.989 347.465 405.048 348.167 402.205 349.146C399.2 350.181 396.301 351.528 393.516 353.054C392.058 353.853 390.627 354.699 389.225 355.592C387.921 356.423 386.547 357.236 385.376 358.251C385.331 358.291 385.339 358.471 385.424 358.433C386.838 357.801 388.161 356.907 389.51 356.148C390.966 355.328 392.432 354.527 393.923 353.771C396.708 352.36 399.567 351.1 402.533 350.119C405.492 349.14 408.557 348.448 411.662 348.165C414.591 347.899 417.451 348.197 420.371 348.387C420.972 348.426 420.632 347.674 420.273 347.558Z" fill="#BBBBBB"/>
<path opacity="0.1" d="M420.273 347.558C417.351 346.617 413.991 346.783 410.979 347.125C407.989 347.465 405.048 348.167 402.205 349.146C399.2 350.181 396.301 351.528 393.516 353.054C392.058 353.853 390.627 354.699 389.225 355.592C387.921 356.423 386.547 357.236 385.376 358.251C385.331 358.291 385.339 358.471 385.424 358.433C386.838 357.801 388.161 356.907 389.51 356.148C390.966 355.328 392.432 354.527 393.923 353.771C396.708 352.36 399.567 351.1 402.533 350.119C405.492 349.14 408.557 348.448 411.662 348.165C414.591 347.899 417.451 348.197 420.371 348.387C420.972 348.426 420.632 347.674 420.273 347.558Z" fill="black"/>
<path d="M70.702 369.621L66.987 388.049L63.376 390.134L59.797 388.067L56.051 369.621L63.377 365.392L70.702 369.621Z" fill="#E0E0E0"/>
<path d="M70.702 369.621L66.987 388.049L63.376 390.134L59.797 388.067L56.051 369.621L63.377 365.392L70.702 369.621Z" fill="#FFD12E"/>
<path opacity="0.3" d="M70.702 369.621L66.987 388.049L63.376 390.134L59.797 388.067L56.051 369.621L63.377 365.392L70.702 369.621Z" fill="white"/>
<path d="M63.376 390.134L63.377 373.85L70.702 369.621L66.987 388.049L63.376 390.134Z" fill="#FFD12E"/>
<path opacity="0.6" d="M63.376 390.134L63.377 373.85L70.702 369.621L66.987 388.049L63.376 390.134Z" fill="white"/>
<path opacity="0.05" d="M70.702 369.621L68.303 381.522L63.376 384.366L58.47 381.534L56.051 369.621L63.377 365.392L70.702 369.621Z" fill="black"/>
<path d="M38.4901 351.024L34.7751 369.451L31.1641 371.536L27.5851 369.47L23.8391 351.024L31.1651 346.794L38.4901 351.024Z" fill="#E0E0E0"/>
<path d="M38.4901 351.024L34.7751 369.451L31.1641 371.536L27.5851 369.47L23.8391 351.024L31.1651 346.794L38.4901 351.024Z" fill="#FFD12E"/>
<path opacity="0.3" d="M38.4901 351.024L34.7751 369.451L31.1641 371.536L27.5851 369.47L23.8391 351.024L31.1651 346.794L38.4901 351.024Z" fill="white"/>
<path d="M31.1641 371.536L31.1651 355.253L38.4901 351.024L34.7751 369.451L31.1641 371.536Z" fill="#FFD12E"/>
<path opacity="0.6" d="M31.1641 371.536L31.1651 355.253L38.4901 351.024L34.7751 369.451L31.1641 371.536Z" fill="white"/>
<path opacity="0.05" d="M38.4901 351.024L36.0911 362.924L31.1641 365.769L26.2581 362.936L23.8391 351.024L31.1651 346.794L38.4901 351.024Z" fill="black"/>
<path d="M165.987 314.607L162.272 333.034L158.661 335.119L155.082 333.053L151.336 314.607L158.662 310.377L165.987 314.607Z" fill="#FFD12E"/>
<path opacity="0.3" d="M165.987 314.607L162.272 333.034L158.661 335.119L155.082 333.053L151.336 314.607L158.662 310.377L165.987 314.607Z" fill="white"/>
<path d="M158.661 335.119V318.836L165.987 314.607L162.272 333.034L158.661 335.119Z" fill="#FFD12E"/>
<path opacity="0.6" d="M158.661 335.119V318.836L165.987 314.607L162.272 333.034L158.661 335.119Z" fill="white"/>
<path opacity="0.05" d="M165.987 314.607L163.588 326.507L158.661 329.352L153.755 326.519L151.336 314.607L158.662 310.377L165.987 314.607Z" fill="black"/>
<path d="M63.3761 381.392L23.4561 358.345V257.945L63.3751 280.993L63.3761 381.392Z" fill="#FFD12E"/>
<path opacity="0.6" d="M63.3761 381.392L23.4561 358.345V257.945L63.3751 280.993L63.3761 381.392Z" fill="white"/>
<path d="M63.375 280.993L168.062 220.551L168.064 320.951L63.376 381.392L63.375 280.993Z" fill="#FFD12E"/>
<path opacity="0.7" d="M63.375 280.993L168.062 220.551L168.064 320.951L63.376 381.392L63.375 280.993Z" fill="white"/>
<path d="M168.062 220.551L63.3751 280.993L23.4561 257.945L128.143 197.503L168.062 220.551Z" fill="#FFD12E"/>
<path opacity="0.8" d="M168.062 220.551L63.3751 280.993L23.4561 257.945L128.143 197.503L168.062 220.551Z" fill="white"/>
<path d="M69.0781 330.793L162.36 276.936L162.359 315.645L163.408 316.251L70.1261 370.107L69.0771 369.501L69.0781 330.793Z" fill="#FFD12E"/>
<g opacity="0.3">
<path d="M69.0781 330.793L162.36 276.936L162.359 315.645L163.408 316.251L70.1261 370.107L69.0771 369.501L69.0781 330.793Z" fill="white"/>
</g>
<path d="M70.1272 331.4L163.409 277.543L163.408 316.251L70.1262 370.107L70.1272 331.4Z" fill="#FFD12E"/>
<g opacity="0.8">
<path d="M70.1272 331.4L163.409 277.543L163.408 316.251L70.1262 370.107L70.1272 331.4Z" fill="white"/>
</g>
<g opacity="0.5">
<path d="M114.973 311.5L122.731 307.02C123.738 306.438 124.555 306.704 124.555 307.613C124.555 308.522 123.738 309.731 122.731 310.312L114.972 314.791C113.965 315.372 113.148 315.107 113.149 314.198C113.149 313.29 113.966 312.081 114.973 311.5Z" fill="#FFD12E"/>
</g>
<path d="M69.077 285.507L162.359 231.65L162.357 270.358L163.406 270.965L70.124 324.821L69.075 324.215L69.077 285.507Z" fill="#FFD12E"/>
<g opacity="0.3">
<path d="M69.077 285.507L162.359 231.65L162.357 270.358L163.406 270.965L70.124 324.821L69.075 324.215L69.077 285.507Z" fill="white"/>
</g>
<path d="M70.126 286.113L163.408 232.256L163.406 270.965L70.124 324.821L70.126 286.113Z" fill="#FFD12E"/>
<g opacity="0.8">
<path d="M70.126 286.113L163.408 232.256L163.406 270.965L70.124 324.821L70.126 286.113Z" fill="white"/>
</g>
<g opacity="0.5">
<path d="M114.972 266.213L122.73 261.733C123.737 261.151 124.554 261.417 124.554 262.326C124.554 263.235 123.737 264.444 122.73 265.025L114.971 269.504C113.964 270.085 113.147 269.82 113.148 268.911C113.148 268.003 113.965 266.795 114.972 266.213Z" fill="#FFD12E"/>
</g>
<path opacity="0.3" d="M51.4489 255.366C51.6239 256.261 51.9999 257.145 52.5789 257.996C53.4899 259.371 54.9089 260.659 56.8249 261.767C64.1699 266.008 76.0839 266.008 83.4299 261.767C85.3459 260.659 86.7639 259.371 87.6759 257.996C88.2489 257.145 88.6259 256.26 88.7999 255.366H88.8059C89.4609 252.179 87.6649 248.855 83.4299 246.41C76.0849 242.164 64.1709 242.164 56.8249 246.41C52.5899 248.855 50.7939 252.179 51.4489 255.366Z" fill="#FFD12E"/>
<path d="M55.1091 240.936L85.1491 240.93L82.0431 253.869H82.0391C81.8021 255.429 80.6541 256.952 78.5851 258.146C73.9131 260.843 66.3391 260.843 61.6671 258.146C59.4411 256.861 58.2891 255.195 58.1841 253.511L55.1091 240.936Z" fill="#37474F"/>
<path d="M58.773 249.805C58.092 249.412 57.498 248.988 56.97 248.546L55.28 241.633C56.051 242.502 57.061 243.319 58.319 244.047C64.656 247.705 74.813 247.797 81.365 244.345L80.601 241.263L80.835 240.937L85.147 240.936L82.042 253.869H82.038C81.801 255.429 80.653 256.952 78.584 258.146C75.256 260.067 70.459 260.613 66.284 259.797C73.768 260.355 78.904 257.082 79.674 254.066C79.981 252.863 80.517 250.199 80.517 250.199C74.267 253.374 64.745 253.249 58.773 249.805Z" fill="#263238"/>
<path d="M53.5471 237.109C53.7021 237.903 54.0361 238.688 54.5501 239.444C55.3591 240.665 56.6181 241.808 58.3191 242.791C64.8391 246.555 75.4151 246.555 81.9351 242.791C83.6351 241.808 84.8951 240.665 85.7041 239.444C86.2131 238.688 86.5471 237.903 86.7021 237.109H86.7071C87.2881 234.28 85.6941 231.33 81.9351 229.159C75.4151 225.39 64.8391 225.39 58.3191 229.159C54.5601 231.329 52.9661 234.279 53.5471 237.109Z" fill="#455A64"/>
<path d="M54.5501 239.443C55.3591 240.664 56.6181 241.807 58.3191 242.79C64.8391 246.554 75.4151 246.554 81.9351 242.79C83.6351 241.807 84.8951 240.664 85.7041 239.443C86.2131 238.687 86.5471 237.902 86.7021 237.108H86.7071L85.9661 242.199C85.6271 244.248 84.1011 246.244 81.3781 247.813C75.1631 251.398 65.0911 251.398 58.8761 247.813C56.1921 246.263 54.6661 244.291 54.3031 242.271L54.2641 242.009L53.5471 237.107C53.7021 237.903 54.0361 238.688 54.5501 239.443Z" fill="#37474F"/>
<path d="M60.2861 230.293C65.7211 227.154 74.5331 227.154 79.9641 230.293C83.0401 232.071 84.3721 234.469 83.9701 236.784C83.6601 238.562 82.3231 240.291 79.9641 241.652C74.5341 244.791 65.7221 244.791 60.2861 241.652C57.9321 240.291 56.5951 238.562 56.2851 236.788C55.8771 234.468 57.2091 232.07 60.2861 230.293Z" fill="#263238"/>
<path d="M83.0512 238.936C82.3722 239.925 81.3492 240.853 79.9632 241.653C74.5332 244.792 65.7212 244.792 60.2852 241.653C58.9012 240.853 57.8792 239.924 57.2002 238.936C57.2402 237.056 58.4992 235.186 60.9822 233.751C66.0322 230.834 74.2202 230.834 79.2662 233.751C81.7512 235.186 83.0102 237.058 83.0512 238.936Z" fill="#FAFAFA"/>
<path d="M69.086 233.095C71.583 232.418 72.006 227.008 70.607 221.299C69.246 215.745 64.89 207.416 63.963 207.599C63.036 207.782 61.881 216.835 62.532 222.813C63.321 230.055 66.589 233.771 69.086 233.095Z" fill="#FFD12E"/>
<path opacity="0.3" d="M69.086 233.095C71.583 232.418 72.006 227.008 70.607 221.299C69.246 215.745 64.89 207.416 63.963 207.599C63.036 207.782 61.881 216.835 62.532 222.813C63.321 230.055 66.589 233.771 69.086 233.095Z" fill="black"/>
<path opacity="0.5" d="M68.4269 215.102C68.3599 214.947 68.2929 214.794 68.2249 214.641C67.9489 214.804 67.7319 215.044 67.5589 215.326C67.2479 215.836 67.0739 216.598 66.4679 216.848C65.9309 217.069 65.4559 216.612 65.0659 216.31C64.7049 216.031 64.3279 215.777 63.8559 215.764C63.3279 215.749 62.8399 215.99 62.4079 216.274C62.3969 216.49 62.3879 216.707 62.3799 216.924C62.8669 216.58 63.4449 216.257 64.0559 216.421C64.8139 216.625 65.2549 217.517 66.0969 217.514C67.1469 217.509 67.4229 216.311 67.8699 215.605C68.0099 215.383 68.2049 215.217 68.4269 215.102ZM66.6499 212.15C66.7019 211.987 66.7449 211.815 66.7899 211.644C66.7229 211.515 66.6569 211.387 66.5899 211.262C66.5089 211.503 66.4419 211.749 66.3539 211.989C66.1589 212.524 65.6389 213.235 64.9869 212.844C64.6229 212.626 64.4319 212.201 64.0869 211.953C63.7869 211.738 63.4049 211.672 63.0429 211.726C62.9619 211.738 62.8829 211.76 62.8049 211.784C62.7799 211.97 62.7559 212.159 62.7319 212.352C62.7469 212.346 62.7599 212.335 62.7759 212.329C63.2309 212.166 63.7109 212.239 64.0619 212.578C64.3389 212.845 64.5459 213.202 64.9049 213.372C65.7629 213.778 66.4279 212.853 66.6499 212.15ZM63.5749 220.292C63.1229 220.346 62.7409 220.554 62.3849 220.82C62.3939 221.018 62.4039 221.215 62.4159 221.409C62.7079 221.177 63.0069 220.968 63.3949 220.887C64.0459 220.751 64.6149 220.982 65.1359 221.356C65.5049 221.621 65.8729 221.94 66.3319 222.031C67.3619 222.234 67.8849 221.179 68.2959 220.441C68.5589 219.967 68.8719 219.571 69.4219 219.441C69.6409 219.389 69.8609 219.397 70.0749 219.435C70.0269 219.284 69.9769 219.132 69.9259 218.979C69.5209 218.942 69.1049 219.035 68.7579 219.284C67.9389 219.871 67.6429 221.859 66.3549 221.491C65.8289 221.341 65.4449 220.875 64.9899 220.598C64.5639 220.339 64.0689 220.233 63.5749 220.292ZM63.0389 225.777C63.0859 225.977 63.1319 226.178 63.1829 226.371C63.3309 226.166 63.4609 225.992 63.5649 225.902C64.1299 225.412 64.9349 225.435 65.5929 225.716C66.1979 225.974 66.6199 226.512 67.2079 226.799C68.3079 227.335 68.9409 226.608 69.4229 225.71C69.7349 225.128 70.1439 224.717 70.8259 224.624C70.9559 224.606 71.0879 224.608 71.2199 224.616C71.2009 224.463 71.1789 224.309 71.1569 224.154C70.8109 224.13 70.4549 224.193 70.1269 224.353C69.1309 224.837 68.9199 226.807 67.5609 226.292C66.9369 226.056 66.5059 225.481 65.9099 225.187C65.3889 224.93 64.7759 224.821 64.2069 224.963C63.7139 225.085 63.3459 225.395 63.0389 225.777Z" fill="#FFD12E"/>
<path opacity="0.1" d="M69.0859 233.095C66.5889 233.772 63.321 230.055 62.532 222.813C62.326 220.924 62.3009 218.728 62.3919 216.602C64.4329 218.277 66.4779 221.697 66.4779 221.697C66.4779 221.697 67.8149 218.199 68.9029 216.235C69.6119 217.975 70.227 219.746 70.607 221.299C72.006 227.008 71.5829 232.418 69.0859 233.095Z" fill="black"/>
<path d="M71.1209 236.094C74.4069 238.203 77.4699 230.703 79.1029 225.043C80.7359 219.383 79.6689 204.586 78.0139 203.777C76.8419 203.204 70.6389 216.463 69.4189 222.918C68.5369 227.585 68.5089 234.418 71.1209 236.094Z" fill="#FFD12E"/>
<path opacity="0.1" d="M71.1209 236.094C74.4069 238.203 77.4699 230.703 79.1029 225.043C80.7359 219.383 79.6689 204.586 78.0139 203.777C76.8419 203.204 70.6389 216.463 69.4189 222.918C68.5369 227.585 68.5089 234.418 71.1209 236.094Z" fill="black"/>
<path d="M79.8569 213.902C79.8479 213.675 79.8379 213.448 79.8259 213.222C79.7879 213.218 79.7509 213.21 79.7129 213.207C78.4639 213.131 77.2889 214.487 76.1869 213.455C75.4719 212.785 75.0149 211.725 73.9959 211.452C73.8049 211.401 73.6159 211.386 73.4279 211.394C73.3139 211.649 73.2009 211.907 73.0869 212.167C74.2539 212.036 74.8049 213.056 75.5529 213.866C76.3579 214.737 77.1789 214.733 78.2099 214.225C78.7379 213.967 79.3099 213.859 79.8569 213.902ZM69.0859 225.177C69.7109 224.949 70.3299 224.84 70.9089 225.292C71.6889 225.901 71.8099 227.133 72.9329 227.32C74.3099 227.549 75.3539 226.15 76.7379 226.506C77.3479 226.663 77.8699 227.041 78.3369 227.498C78.4009 227.31 78.4629 227.122 78.5239 226.935C78.1729 226.575 77.7819 226.265 77.3439 226.046C76.0599 225.403 75.1439 226.208 73.9199 226.531C72.3119 226.955 72.2679 225.335 71.2729 224.604C70.8289 224.278 70.2649 224.148 69.7229 224.252C69.5329 224.288 69.3549 224.346 69.1819 224.408C69.1469 224.661 69.1149 224.917 69.0859 225.177ZM79.2059 208.053C79.2549 208.051 79.3009 208.058 79.3479 208.062C79.3269 207.914 79.3039 207.77 79.2819 207.627C79.0909 207.607 78.8909 207.637 78.6869 207.742C78.0899 208.047 77.8099 209.105 77.0969 209.143C76.1849 209.192 75.9489 207.809 75.4729 207.172C75.3849 207.337 75.2959 207.507 75.2059 207.681C75.6959 208.284 75.7539 209.21 76.5159 209.601C77.2279 209.967 77.7679 209.383 78.1529 208.854C78.4179 208.49 78.7089 208.069 79.2059 208.053ZM77.7069 219.497C78.4289 219.482 79.2699 219.696 79.8129 220.205C79.8329 219.894 79.8489 219.576 79.8629 219.255C79.6679 219.138 79.4639 219.035 79.2559 218.961C78.6169 218.733 77.9239 218.674 77.2559 218.797C76.5359 218.93 75.7229 219.633 75.0299 219.183C74.4239 218.79 74.1009 218.007 73.7089 217.423C73.3349 216.866 72.8949 216.332 72.3029 215.995C72.0989 215.879 71.8669 215.796 71.6259 215.743C71.5369 215.976 71.4489 216.209 71.3629 216.44C72.0759 216.669 72.7289 217.326 73.1629 217.962C73.7479 218.819 74.3809 220.364 75.6779 220.084C76.3869 219.933 76.9499 219.513 77.7069 219.497Z" fill="#FFD12E"/>
<path opacity="0.1" d="M71.1429 217.041C72.8839 219.128 73.8039 221.4 73.8039 221.4C73.8039 221.4 77.3709 216.563 79.8749 214.37C80.0129 218.388 79.8139 222.58 79.1029 225.043C77.4699 230.703 74.4069 238.202 71.1209 236.094C68.5089 234.418 68.5369 227.585 69.4189 222.918C69.7289 221.284 70.3579 219.213 71.1429 217.041Z" fill="black"/>
<path d="M71.3459 239.95C77.3529 240.274 82.9679 236.638 86.6089 232.051C90.2499 227.464 93.093 217.992 92.271 217.411C91.449 216.829 81.7559 222.805 78.1179 227.117C73.3449 232.773 71.3459 239.95 71.3459 239.95Z" fill="#FFD12E"/>
<path opacity="0.2" d="M71.3459 239.95C77.3529 240.274 82.9679 236.638 86.6089 232.051C90.2499 227.464 93.093 217.992 92.271 217.411C91.449 216.829 81.7559 222.805 78.1179 227.117C73.3449 232.773 71.3459 239.95 71.3459 239.95Z" fill="black"/>
<path d="M85.958 225.504C86.602 225.458 87.23 225.157 87.883 225.26C88.825 225.409 88.551 226.311 88.638 227.009C88.684 227.376 88.849 227.738 89.086 228.027C89.199 227.802 89.31 227.576 89.418 227.348C89.287 227.116 89.207 226.855 89.201 226.617C89.187 226.049 89.336 225.43 88.944 224.946C88.135 223.946 86.736 224.849 85.726 224.711C84.799 224.584 84.966 223.721 85.065 223.028C85.148 222.452 85.113 221.904 84.819 221.4C84.593 221.558 84.367 221.718 84.141 221.88C84.351 222.207 84.441 222.597 84.384 223.045C84.307 223.655 84.107 224.337 84.458 224.903C84.783 225.426 85.384 225.545 85.958 225.504ZM88.71 221.779C88.923 222.011 89.188 222.166 89.506 222.188C89.964 222.219 90.387 221.98 90.841 221.993C91.079 222 91.287 222.064 91.471 222.168C91.518 222.02 91.564 221.875 91.608 221.732C91.529 221.679 91.446 221.629 91.357 221.588C90.94 221.397 90.54 221.457 90.106 221.545C89.656 221.636 89.27 221.608 88.972 221.223C88.526 220.647 88.526 219.851 88.085 219.272C87.908 219.379 87.728 219.489 87.545 219.602C87.644 219.683 87.736 219.773 87.81 219.888C88.194 220.483 88.217 221.241 88.71 221.779ZM82.971 228.393C85.107 228.391 84.291 230.759 85.297 231.951C85.541 232.24 85.836 232.446 86.159 232.592C86.305 232.419 86.453 232.247 86.593 232.07C86.452 232.017 86.313 231.956 86.179 231.874C85.4 231.401 85.273 230.627 85.151 229.791C85.068 229.226 84.945 228.621 84.552 228.18C84.128 227.703 83.544 227.667 82.945 227.668C82.115 227.669 81.492 227.448 81.075 226.689C80.711 226.027 80.778 225.317 80.655 224.613C80.46 224.782 80.271 224.95 80.086 225.118C80.14 225.54 80.135 225.983 80.242 226.393C80.394 226.972 80.684 227.553 81.153 227.939C81.699 228.387 82.298 228.394 82.971 228.393ZM79.645 232.486C80.324 232.964 81.197 232.875 81.833 233.472C82.496 234.096 82.597 234.968 82.732 235.82C82.737 235.849 82.743 235.881 82.749 235.912C82.964 235.742 83.176 235.566 83.384 235.388C83.307 234.877 83.25 234.361 83.063 233.874C82.822 233.245 82.373 232.71 81.782 232.38C81.091 231.994 80.259 232.066 79.737 231.394C79.239 230.753 79.139 229.921 78.955 229.155C78.784 228.443 78.508 227.795 77.992 227.267C77.815 227.48 77.642 227.696 77.472 227.913C77.646 228.105 77.804 228.311 77.923 228.543C78.577 229.818 78.351 231.574 79.645 232.486ZM74.876 231.805C75.122 232.017 75.342 232.265 75.527 232.556C76.303 233.783 76.026 235.351 76.649 236.642C76.897 237.156 77.275 237.626 77.791 237.89C78.094 238.044 78.389 238.094 78.725 238.115C78.893 238.125 79.065 238.132 79.226 238.173C79.53 238.02 79.83 237.86 80.126 237.69C80.109 237.672 80.097 237.651 80.078 237.634C79.58 237.184 78.932 237.413 78.36 237.177C77.65 236.883 77.275 236.166 77.082 235.462C76.706 234.084 76.833 232.622 75.808 231.495C75.66 231.332 75.494 231.185 75.321 231.047C75.168 231.3 75.02 231.553 74.876 231.805Z" fill="#FFD12E"/>
<path opacity="0.2" d="M84.8749 221.362C84.3099 226.335 81.6559 239.717 71.3459 239.951C71.3459 239.951 73.3439 232.773 78.1169 227.118C79.6609 225.288 82.2929 223.162 84.8749 221.362Z" fill="black"/>
<path d="M71.346 239.95C76.072 239.26 80.126 236.27 82.21 227.369C84.295 218.468 84.612 214.45 83.179 213.565C81.529 212.547 75.081 221.519 73.007 225.465C67.796 235.38 71.346 239.95 71.346 239.95Z" fill="#FFD12E"/>
<path opacity="0.2" d="M82.5709 223.383C82.7339 223.444 82.8909 223.522 83.0439 223.608C83.0999 223.336 83.1579 223.059 83.2099 222.799C82.8719 222.598 82.4929 222.457 82.0779 222.401C81.3289 222.3 80.6169 222.513 79.9069 222.727C79.2159 222.936 78.4039 223.173 77.7199 222.812C76.8089 222.331 76.8219 221.093 76.3029 220.254C76.0879 220.558 75.8759 220.861 75.6699 221.163C75.9699 221.763 76.0879 222.533 76.5199 223.103C77.4029 224.265 78.9359 223.872 80.1129 223.502C80.9369 223.245 81.7349 223.069 82.5709 223.383ZM82.5729 218.696C83.0219 218.714 83.4519 218.862 83.8409 219.084C83.8699 218.866 83.8979 218.65 83.9209 218.446C83.6379 218.268 83.3209 218.141 82.9769 218.086C82.6359 218.031 82.2959 218.034 81.9579 218.107C81.5679 218.192 81.1829 218.457 80.7799 218.45C79.9469 218.436 79.5719 217.332 79.1249 216.792C79.0959 216.757 79.0639 216.731 79.0349 216.7C78.8879 216.874 78.7399 217.054 78.5909 217.236C78.7289 217.375 78.8459 217.537 78.9539 217.702C79.3209 218.263 79.6959 218.957 80.4129 219.105C80.8049 219.186 81.1539 219.04 81.5099 218.896C81.8529 218.758 82.1999 218.682 82.5729 218.696ZM80.4309 229.556C80.8649 229.421 81.2789 229.362 81.6739 229.366C81.7619 229.071 81.8469 228.767 81.9299 228.456C81.6169 228.443 81.3019 228.467 80.9879 228.529C79.9129 228.742 78.6129 229.511 77.6509 228.633C77.1259 228.154 76.8499 227.459 76.4419 226.888C75.9939 226.262 75.3779 225.8 74.6389 225.571C74.0839 225.399 73.5509 225.409 73.0069 225.467C72.8269 225.809 72.6609 226.142 72.5009 226.471C73.3479 226.375 74.1309 226.341 74.9089 226.9C75.5749 227.378 75.9009 228.123 76.3519 228.782C77.4259 230.351 78.8269 230.055 80.4309 229.556ZM70.6069 231.67C70.9789 231.837 71.3129 232.086 71.5829 232.418C72.0369 232.976 72.2719 233.678 72.6759 234.27C73.5079 235.488 74.6629 235.842 76.0199 235.287C76.5699 235.062 77.0519 234.903 77.6479 235.084C78.0209 235.197 78.3669 235.419 78.6629 235.676C78.8299 235.457 78.9959 235.235 79.1559 234.996C78.7799 234.629 78.3399 234.337 77.8399 234.174C77.1129 233.937 76.4739 234.102 75.7629 234.327C74.9519 234.584 74.3879 234.409 73.8819 233.7C73.4499 233.094 73.2069 232.377 72.7489 231.785C72.3329 231.247 71.7859 230.826 71.1479 230.583C71.0679 230.553 70.9889 230.538 70.9099 230.515C70.7929 230.913 70.6939 231.297 70.6069 231.67Z" fill="white"/>
<path opacity="0.15" d="M73.008 225.466C73.383 224.752 73.903 223.872 74.511 222.918C76.554 229.236 77.212 238.451 71.347 239.95C71.347 239.95 67.796 235.38 73.008 225.466Z" fill="black"/>
<path d="M68.906 239.95C62.899 240.274 57.284 236.638 53.643 232.051C50.002 227.464 47.159 217.992 47.981 217.411C48.804 216.829 58.496 222.805 62.135 227.117C66.908 232.773 68.906 239.95 68.906 239.95Z" fill="#FFD12E"/>
<path opacity="0.2" d="M68.906 239.95C62.899 240.274 57.284 236.638 53.643 232.051C50.002 227.464 47.159 217.992 47.981 217.411C48.804 216.829 58.496 222.805 62.135 227.117C66.908 232.773 68.906 239.95 68.906 239.95Z" fill="black"/>
<path d="M55.793 224.904C56.144 224.338 55.944 223.656 55.867 223.046C55.81 222.598 55.9 222.208 56.11 221.881C55.884 221.718 55.658 221.558 55.432 221.401C55.139 221.905 55.104 222.453 55.186 223.029C55.286 223.722 55.453 224.585 54.525 224.712C53.514 224.851 52.116 223.947 51.307 224.947C50.915 225.431 51.065 226.05 51.05 226.618C51.044 226.855 50.964 227.117 50.833 227.349C50.942 227.577 51.053 227.804 51.166 228.028C51.402 227.739 51.568 227.377 51.613 227.01C51.7 226.312 51.426 225.41 52.368 225.261C53.021 225.158 53.649 225.459 54.293 225.505C54.868 225.545 55.469 225.426 55.793 224.904ZM52.442 219.888C52.516 219.774 52.608 219.683 52.707 219.602C52.524 219.489 52.344 219.379 52.167 219.272C51.725 219.851 51.726 220.646 51.28 221.223C50.982 221.608 50.596 221.637 50.146 221.545C49.712 221.457 49.312 221.397 48.895 221.588C48.805 221.629 48.723 221.678 48.644 221.732C48.688 221.876 48.734 222.021 48.781 222.168C48.965 222.064 49.174 221.999 49.411 221.993C49.865 221.98 50.288 222.219 50.746 222.188C51.064 222.166 51.329 222.012 51.542 221.779C52.035 221.241 52.058 220.483 52.442 219.888ZM59.097 227.938C59.566 227.551 59.856 226.971 60.008 226.392C60.115 225.982 60.11 225.539 60.165 225.117C59.98 224.949 59.791 224.781 59.596 224.612C59.473 225.317 59.54 226.026 59.176 226.688C58.759 227.447 58.136 227.668 57.306 227.667C56.708 227.666 56.123 227.703 55.699 228.179C55.307 228.62 55.183 229.225 55.1 229.79C54.978 230.626 54.85 231.4 54.072 231.873C53.938 231.954 53.799 232.016 53.658 232.069C53.798 232.245 53.946 232.417 54.092 232.591C54.416 232.445 54.711 232.239 54.954 231.95C55.96 230.758 55.144 228.39 57.28 228.392C57.954 228.394 58.553 228.387 59.097 227.938ZM62.327 228.543C62.446 228.311 62.604 228.105 62.778 227.913C62.609 227.696 62.435 227.481 62.258 227.267C61.743 227.794 61.467 228.442 61.296 229.155C61.112 229.921 61.012 230.753 60.514 231.394C59.992 232.066 59.16 231.994 58.469 232.38C57.878 232.71 57.43 233.245 57.188 233.874C57.001 234.361 56.944 234.877 56.867 235.388C57.076 235.566 57.287 235.741 57.502 235.912C57.507 235.881 57.514 235.849 57.519 235.82C57.655 234.968 57.755 234.096 58.419 233.472C59.055 232.874 59.928 232.964 60.607 232.486C61.901 231.574 61.675 229.818 62.327 228.543ZM64.931 231.046C64.758 231.184 64.592 231.331 64.444 231.494C63.419 232.62 63.546 234.082 63.17 235.461C62.978 236.166 62.603 236.883 61.893 237.176C61.321 237.413 60.673 237.184 60.175 237.633C60.156 237.65 60.145 237.671 60.127 237.689C60.423 237.858 60.723 238.019 61.027 238.172C61.188 238.131 61.36 238.124 61.528 238.114C61.864 238.094 62.159 238.044 62.462 237.889C62.979 237.626 63.356 237.155 63.604 236.641C64.227 235.35 63.949 233.782 64.726 232.555C64.911 232.263 65.131 232.015 65.377 231.804C65.232 231.553 65.084 231.3 64.931 231.046Z" fill="#FFD12E"/>
<path opacity="0.2" d="M55.377 221.362C55.942 226.335 58.596 239.717 68.906 239.951C68.906 239.951 66.908 232.773 62.135 227.118C60.591 225.288 57.96 223.162 55.377 221.362Z" fill="black"/>
<path d="M68.9059 239.95C64.1799 239.26 60.1259 236.27 58.0419 227.369C55.9569 218.468 55.6399 214.45 57.0729 213.565C58.7229 212.547 65.1709 221.519 67.2449 225.465C72.4559 235.38 68.9059 239.95 68.9059 239.95Z" fill="#FFD12E"/>
<path opacity="0.2" d="M60.139 223.504C61.316 223.874 62.849 224.267 63.732 223.105C64.164 222.535 64.282 221.766 64.582 221.165C64.375 220.863 64.164 220.559 63.949 220.256C63.43 221.095 63.443 222.333 62.532 222.814C61.848 223.175 61.036 222.938 60.345 222.729C59.635 222.515 58.923 222.302 58.174 222.403C57.759 222.459 57.381 222.6 57.043 222.801C57.095 223.061 57.153 223.338 57.209 223.61C57.362 223.524 57.519 223.446 57.682 223.385C58.517 223.069 59.315 223.245 60.139 223.504ZM58.743 218.897C59.1 219.041 59.449 219.187 59.841 219.106C60.558 218.958 60.933 218.264 61.3 217.703C61.408 217.538 61.525 217.376 61.663 217.237C61.514 217.055 61.366 216.875 61.219 216.701C61.189 216.732 61.157 216.758 61.129 216.793C60.682 217.333 60.307 218.437 59.474 218.451C59.071 218.458 58.686 218.193 58.296 218.108C57.958 218.035 57.618 218.032 57.277 218.087C56.933 218.142 56.616 218.269 56.333 218.447C56.356 218.651 56.384 218.867 56.413 219.085C56.802 218.863 57.232 218.714 57.681 218.697C58.052 218.682 58.4 218.758 58.743 218.897ZM63.9 228.783C64.351 228.124 64.677 227.379 65.344 226.901C66.122 226.342 66.906 226.376 67.752 226.472C67.593 226.143 67.426 225.81 67.247 225.468C66.703 225.41 66.17 225.4 65.615 225.572C64.877 225.801 64.261 226.262 63.812 226.889C63.404 227.459 63.127 228.155 62.603 228.634C61.641 229.512 60.341 228.743 59.266 228.53C58.952 228.468 58.637 228.443 58.324 228.457C58.407 228.767 58.492 229.072 58.58 229.367C58.974 229.364 59.388 229.422 59.823 229.557C61.425 230.055 62.826 230.351 63.9 228.783ZM69.341 230.514C69.262 230.537 69.182 230.551 69.103 230.582C68.465 230.826 67.918 231.247 67.502 231.784C67.044 232.376 66.802 233.093 66.369 233.699C65.863 234.407 65.3 234.583 64.488 234.326C63.777 234.101 63.139 233.936 62.411 234.173C61.911 234.336 61.471 234.628 61.095 234.995C61.255 235.235 61.421 235.456 61.588 235.675C61.884 235.418 62.231 235.196 62.603 235.083C63.199 234.902 63.681 235.062 64.231 235.286C65.588 235.841 66.742 235.487 67.575 234.269C67.979 233.677 68.214 232.975 68.668 232.417C68.938 232.085 69.272 231.836 69.644 231.669C69.558 231.297 69.459 230.913 69.341 230.514Z" fill="white"/>
<path opacity="0.15" d="M67.244 225.466C66.869 224.752 66.349 223.872 65.742 222.918C63.699 229.236 63.041 238.451 68.906 239.95C68.906 239.95 72.456 235.38 67.244 225.466Z" fill="black"/>
<path d="M70.1261 240.931C66.1411 240.931 64.8161 235.506 65.2141 231.141C65.6131 226.776 68.3711 218.469 70.1261 218.469C71.8811 218.469 74.6391 226.775 75.0371 231.141C75.4361 235.506 74.1121 240.931 70.1261 240.931Z" fill="#FFD12E"/>
<path opacity="0.3" d="M70.1261 240.931C66.1411 240.931 64.8161 235.506 65.2141 231.141C65.6131 226.776 68.3711 218.469 70.1261 218.469C71.8811 218.469 74.6391 226.775 75.0371 231.141C75.4361 235.506 74.1121 240.931 70.1261 240.931Z" fill="white"/>
<path opacity="0.2" d="M71.56 223.569C71.968 223.131 72.449 222.878 72.949 222.789C72.868 222.575 72.785 222.365 72.702 222.16C72.689 222.163 72.676 222.163 72.662 222.166C72.128 222.282 71.73 222.572 71.351 222.949C71.034 223.264 70.741 223.524 70.259 223.356C69.925 223.24 69.669 222.976 69.426 222.731C68.918 222.219 68.364 221.862 67.744 221.697C67.64 221.94 67.537 222.192 67.435 222.451C67.879 222.548 68.303 222.748 68.665 223.088C69.11 223.506 69.515 224.023 70.15 224.149C70.726 224.264 71.18 223.977 71.56 223.569ZM74.399 227.531C74.347 227.315 74.293 227.097 74.237 226.878C74.23 226.883 74.222 226.885 74.215 226.889C73.667 227.27 73.418 227.937 72.893 228.328C72.001 228.995 71.123 227.927 70.583 227.306C69.644 226.228 68.575 225.82 67.388 226.793C66.845 227.238 66.391 227.715 65.771 227.871C65.712 228.126 65.658 228.376 65.607 228.624C65.757 228.601 65.908 228.567 66.064 228.511C66.67 228.293 67.1 227.814 67.581 227.411C68.389 226.734 69.138 226.884 69.848 227.618C70.697 228.495 71.795 229.972 73.123 228.931C73.618 228.546 73.881 227.879 74.399 227.531ZM75.104 232.803C75.106 232.576 75.101 232.35 75.094 232.125C74.519 231.852 73.86 231.769 73.187 231.935C72.605 232.079 72.068 232.39 71.647 232.816C71.314 233.153 71.041 233.721 70.585 233.89C70.198 234.033 69.73 233.75 69.435 233.522C68.89 233.102 68.545 232.477 67.98 232.076C67.47 231.714 66.875 231.624 66.265 231.728C65.879 231.794 65.517 231.928 65.158 232.073C65.15 232.308 65.146 232.544 65.148 232.781C65.93 232.474 66.799 232.207 67.556 232.72C68.097 233.087 68.426 233.68 68.923 234.097C69.943 234.952 70.881 234.707 71.634 233.71C72.522 232.536 73.905 232.277 75.104 232.803ZM66.219 236.702C66.027 236.639 65.843 236.604 65.662 236.584C65.75 236.895 65.848 237.197 65.96 237.487C66.118 237.543 66.272 237.611 66.419 237.696C66.975 238.017 67.383 238.536 67.955 238.837C68.462 239.104 69.035 239.246 69.607 239.245C70.145 239.245 70.705 239.142 71.162 238.843C71.669 238.511 71.898 237.927 72.376 237.573C73.025 237.092 73.707 237.087 74.361 237.299C74.445 237.067 74.521 236.828 74.591 236.583C74.19 236.463 73.766 236.418 73.341 236.478C72.775 236.558 72.246 236.817 71.841 237.221C71.616 237.446 71.457 237.724 71.236 237.951C70.93 238.265 70.534 238.399 70.103 238.446C69.29 238.535 68.493 238.265 67.854 237.771C67.318 237.358 66.878 236.92 66.219 236.702Z" fill="white"/>
<path d="M269.172 328.65C266.486 328.649 264.076 328.045 262.011 326.852C256.618 323.739 253.649 316.75 253.649 307.173C253.649 285.151 269.165 258.277 288.237 247.265L361.353 205.053C366.335 202.176 371.199 200.656 375.419 200.656C378.105 200.656 380.514 201.261 382.579 202.454C387.972 205.567 390.941 212.557 390.941 222.134C390.941 244.155 375.425 271.029 356.353 282.041L283.236 324.254C278.255 327.13 273.391 328.65 269.172 328.65Z" fill="#AAAAAA"/>
<path d="M385.08 198.121C381 195.771 365.51 186.821 361.43 184.471C354.72 180.591 345.45 181.151 335.21 187.071L262.09 229.281C241.6 241.111 225 269.871 225 293.521C225 305.341 229.15 313.651 235.86 317.531C239.94 319.881 255.44 328.831 259.51 331.181C266.22 335.061 275.49 334.501 285.74 328.581C285.98 328.441 286.21 328.291 286.45 328.151L358.13 286.771C358.25 286.701 358.37 286.641 358.49 286.571L358.85 286.371C379.34 274.541 395.94 245.781 395.94 222.131C395.94 210.311 391.79 202.001 385.08 198.121ZM356.35 282.041L283.24 324.251C278.26 327.131 273.39 328.651 269.17 328.651C266.49 328.651 264.08 328.041 262.01 326.851C256.62 323.741 253.65 316.751 253.65 307.171C253.65 285.151 269.16 258.281 288.24 247.261L361.35 205.051C366.33 202.181 371.2 200.651 375.42 200.651C378.1 200.651 380.51 201.261 382.58 202.451C387.97 205.571 390.94 212.561 390.94 222.131C390.94 244.151 375.43 271.031 356.35 282.041Z" fill="#AAAAAA"/>
<path d="M385.08 198.121C378.37 194.251 369.1 194.811 358.85 200.721L285.74 242.931C265.25 254.761 248.65 283.521 248.65 307.171C248.65 319.001 252.8 327.311 259.51 331.181C266.22 335.061 275.49 334.501 285.74 328.581L358.49 286.571L358.85 286.371C379.34 274.541 395.94 245.781 395.94 222.131C395.94 210.311 391.79 202.001 385.08 198.121ZM356.35 282.041L283.24 324.251C278.26 327.131 273.39 328.651 269.17 328.651C266.49 328.651 264.08 328.041 262.01 326.851C256.62 323.741 253.65 316.751 253.65 307.171C253.65 285.151 269.16 258.281 288.24 247.261L361.35 205.051C366.33 202.181 371.2 200.651 375.42 200.651C378.1 200.651 380.51 201.261 382.58 202.451C387.97 205.571 390.94 212.561 390.94 222.131C390.94 244.151 375.43 271.031 356.35 282.041Z" fill="#DADADA"/>
<path d="M349.024 281.952C354.014 284.833 360.909 284.418 368.524 280.02C383.754 271.226 396.102 249.84 396.101 232.255C396.102 223.461 393.015 217.283 388.024 214.401C384.994 212.652 384.36 212.287 381.33 210.538C376.34 207.657 369.444 208.074 361.83 212.47C346.599 221.265 334.252 242.65 334.252 260.236C334.251 269.03 337.34 275.207 342.33 278.088C345.361 279.838 345.994 280.203 349.024 281.952Z" fill="#FFD12E"/>
<path d="M396.102 232.255C396.102 223.462 393.015 217.283 388.025 214.402C383.034 211.521 376.14 211.937 368.525 216.334C353.294 225.128 340.947 246.513 340.947 264.1C340.947 272.893 344.034 279.072 349.024 281.953C354.015 284.834 360.909 284.418 368.524 280.021C383.755 271.227 396.102 249.841 396.102 232.255Z" fill="#FFD12E"/>
<path opacity="0.4" d="M396.102 232.255C396.102 223.462 393.015 217.283 388.025 214.402C383.034 211.521 376.14 211.937 368.525 216.334C353.294 225.128 340.947 246.513 340.947 264.1C340.947 272.893 344.034 279.072 349.024 281.953C354.015 284.834 360.909 284.418 368.524 280.021C383.755 271.227 396.102 249.841 396.102 232.255Z" fill="white"/>
<path d="M364.149 267.353C363.254 267.353 362.376 267.052 361.661 266.485L352.696 259.361C350.966 257.986 350.678 255.47 352.052 253.741C353.427 252.012 355.944 251.725 357.672 253.097L362.652 257.054L376.316 227.46C377.243 225.455 379.617 224.581 381.625 225.505C383.631 226.432 384.506 228.808 383.58 230.814L367.781 265.03C367.266 266.144 366.268 266.961 365.074 267.245C364.768 267.317 364.458 267.353 364.149 267.353Z" fill="#FAFAFA"/>
<path d="M269.473 199.678C266.787 199.677 264.377 199.073 262.312 197.88C256.919 194.767 253.95 187.778 253.95 178.201C253.95 156.178 269.466 129.305 288.538 118.293L361.654 76.081C366.636 73.204 371.5 71.684 375.72 71.684C378.406 71.684 380.815 72.289 382.88 73.482C388.273 76.595 391.242 83.585 391.242 93.162C391.242 115.183 375.726 142.057 356.654 153.069L283.537 195.282C278.556 198.158 273.692 199.678 269.473 199.678Z" fill="#AAAAAA"/>
<path d="M385.381 69.149C381.301 66.799 365.811 57.849 361.731 55.499C355.021 51.619 345.751 52.179 335.511 58.099L262.391 100.309C241.901 112.139 225.301 140.899 225.301 164.549C225.301 176.369 229.451 184.679 236.161 188.559C240.241 190.909 255.741 199.859 259.811 202.209C266.521 206.089 275.791 205.529 286.041 199.609C286.281 199.469 286.511 199.319 286.751 199.179L358.431 157.799C358.551 157.729 358.671 157.669 358.791 157.599L359.151 157.399C379.641 145.569 396.241 116.809 396.241 93.159C396.241 81.339 392.091 73.029 385.381 69.149ZM356.651 153.069L283.541 195.279C278.561 198.159 273.691 199.679 269.471 199.679C266.791 199.679 264.381 199.069 262.311 197.879C256.921 194.769 253.951 187.779 253.951 178.199C253.951 156.179 269.461 129.309 288.541 118.289L361.651 76.079C366.631 73.209 371.501 71.679 375.721 71.679C378.401 71.679 380.811 72.289 382.881 73.479C388.271 76.599 391.241 83.589 391.241 93.159C391.241 115.179 375.731 142.059 356.651 153.069Z" fill="#AAAAAA"/>
<path d="M385.381 69.149C378.671 65.279 369.401 65.839 359.151 71.749L286.041 113.959C265.551 125.789 248.951 154.549 248.951 178.199C248.951 190.029 253.101 198.339 259.811 202.209C266.521 206.089 275.791 205.529 286.041 199.609L358.791 157.599L359.151 157.399C379.641 145.569 396.241 116.809 396.241 93.159C396.241 81.339 392.091 73.029 385.381 69.149ZM356.651 153.069L283.541 195.279C278.561 198.159 273.691 199.679 269.471 199.679C266.791 199.679 264.381 199.069 262.311 197.879C256.921 194.769 253.951 187.779 253.951 178.199C253.951 156.179 269.461 129.309 288.541 118.289L361.651 76.079C366.631 73.209 371.501 71.679 375.721 71.679C378.401 71.679 380.811 72.289 382.881 73.479C388.271 76.599 391.241 83.589 391.241 93.159C391.241 115.179 375.731 142.059 356.651 153.069Z" fill="#DADADA"/>
<path d="M275.306 197.072C280.296 199.953 287.191 199.537 294.806 195.14C310.036 186.346 322.384 164.96 322.383 147.375C322.384 138.581 319.297 132.403 314.306 129.521C311.276 127.772 310.642 127.407 307.612 125.658C302.622 122.777 295.726 123.194 288.112 127.59C272.881 136.385 260.535 157.77 260.534 175.356C260.533 184.15 263.622 190.327 268.612 193.208C271.642 194.958 272.275 195.323 275.306 197.072Z" fill="#263238"/>
<path d="M322.383 147.375C322.383 138.582 319.296 132.403 314.306 129.522C309.315 126.641 302.421 127.057 294.806 131.454C279.575 140.248 267.228 161.633 267.228 179.22C267.228 188.013 270.315 194.192 275.305 197.073C280.296 199.954 287.19 199.537 294.805 195.141C310.036 186.347 322.383 164.961 322.383 147.375Z" fill="#455A64"/>
<path d="M306.837 167.379L299.92 162.15L307.969 146.771C308.993 144.814 308.238 142.397 306.28 141.373C304.326 140.35 301.907 141.103 300.882 143.062L293.452 157.259L287.599 152.834C285.837 151.502 283.327 151.85 281.996 153.612C280.663 155.375 281.012 157.882 282.774 159.215L289.691 164.444L281.642 179.823C280.618 181.78 281.373 184.197 283.332 185.221C283.924 185.531 284.557 185.678 285.184 185.678C286.624 185.678 288.016 184.897 288.731 183.532L296.161 169.335L302.014 173.76C302.736 174.306 303.582 174.57 304.423 174.57C305.634 174.57 306.83 174.022 307.616 172.982C308.948 171.219 308.6 168.711 306.837 167.379Z" fill="#FAFAFA"/>
<path d="M188.173 372.381C187.424 381.061 186.939 387.503 187.077 388.992C187.575 394.393 190.602 397.738 192.939 399.958C197.835 404.608 201.306 406.455 207.391 410.467C206.583 412.615 194.06 412.83 190.46 411.294C184.709 408.84 177.27 404.763 175.296 403.472C170.296 400.204 169.092 398.189 168.873 393.042C168.842 392.401 168.337 388.214 168.381 387.929C168.311 386.723 167.528 380.203 166.513 372.175L188.173 372.381Z" fill="#FFD4AC"/>
<path d="M114.503 389.544L114.504 368.801L136.787 370.41L132.64 390.737C132.64 390.737 130.158 418.418 128.989 422.915C125.217 437.428 112.516 431.571 111.005 423.88C109.999 418.761 114.503 389.544 114.503 389.544Z" fill="#FFD4AC"/>
<path d="M217.372 418.642C217.695 418.662 217.951 422.014 216.094 423.319C213.949 424.826 207.803 427.141 199.996 425.715C192.188 424.289 188.084 421.763 185.106 419.116C182.127 416.47 177.954 412.739 174.443 411.792C171.182 410.912 165.92 408.849 164.928 407.833C163.936 406.817 164.38 402.593 164.38 402.593L217.372 418.642Z" fill="#263238"/>
<path d="M168.381 387.93C168.381 387.93 167.287 388.325 167.014 389.293C166.69 390.444 166.574 391.938 165.919 393.821C165.01 396.439 164.143 401.863 164.424 404.058C164.706 406.253 171.761 408.536 175.122 409.967C178.554 411.429 182.446 414.249 185.828 417.21C189.329 420.274 196.912 423.597 202.039 423.978C209.866 424.56 215.078 422.89 216.829 420.364C218.994 417.238 218.266 413.817 209.536 409.387C207.883 408.549 202.128 404.887 200.172 403.567C198.104 402.173 196.137 400.643 194.343 398.95C193.436 398.094 192.573 397.196 191.772 396.251C191.067 395.42 190.063 394.406 189.681 393.402C189.595 393.174 189.542 392.911 189.467 392.676C189.251 391.997 189.113 391.375 189.018 390.676C188.922 389.97 188.902 388.949 188.219 388.488C187.436 387.959 176.209 389.399 175.342 390.51C174.678 391.361 174.507 392.477 174.388 393.502C174.331 393.99 174.308 394.483 174.269 394.972C174.252 395.181 174.322 395.563 174.013 395.456C173.719 395.355 173.437 394.603 173.341 394.348C173.129 393.785 173.011 393.189 172.775 392.634C172.506 391.999 172.304 391.26 171.779 390.792C170.363 389.529 168.898 389.669 168.494 389.243C168.496 389.243 168.4 388.348 168.381 387.93Z" fill="#37474F"/>
<path d="M210.014 409.633C198.62 409.672 194.862 417.909 194.097 421.915C196.843 423.012 199.697 423.805 202.041 423.979C209.868 424.561 215.402 422.913 217.153 420.387C219.195 417.439 217.855 412.962 210.014 409.633Z" fill="#FAFAFA"/>
<path d="M193.274 410.641C193.15 410.634 193.029 410.589 192.931 410.503C192.707 410.309 192.695 409.982 192.904 409.773C194.609 408.069 199.99 404.513 204.083 405.181C204.386 405.229 204.589 405.498 204.535 405.778C204.483 406.059 204.202 406.247 203.893 406.199C200.072 405.586 195.068 409.127 193.716 410.479C193.599 410.596 193.435 410.651 193.274 410.641Z" fill="#F5F5F5"/>
<path d="M188.574 407.695C188.45 407.688 188.329 407.643 188.231 407.557C188.007 407.363 187.995 407.036 188.204 406.827C189.911 405.121 195.294 401.559 199.383 402.234C199.686 402.282 199.888 402.551 199.834 402.832C199.782 403.112 199.507 403.301 199.192 403.253C195.372 402.635 190.367 406.18 189.015 407.532C188.899 407.65 188.735 407.705 188.574 407.695Z" fill="#F5F5F5"/>
<path d="M184.261 404.394C184.137 404.386 184.016 404.341 183.918 404.256C183.693 404.062 183.682 403.735 183.891 403.526C185.596 401.82 190.996 398.263 195.07 398.933C195.373 398.982 195.575 399.25 195.522 399.531C195.47 399.812 195.193 399.999 194.88 399.951C191.064 399.336 186.055 402.879 184.703 404.231C184.585 404.348 184.422 404.404 184.261 404.394Z" fill="#F5F5F5"/>
<path d="M180.039 401.098C179.919 401.091 179.799 401.047 179.703 400.965C179.475 400.774 179.459 400.447 179.664 400.236C182.015 397.814 187.702 394.98 191.791 395.649C192.094 395.697 192.296 395.966 192.242 396.247C192.19 396.527 191.912 396.708 191.6 396.667C187.919 396.067 182.573 398.783 180.486 400.93C180.368 401.051 180.202 401.108 180.039 401.098Z" fill="#F5F5F5"/>
<path d="M130.803 424.373C130.447 429.184 129.607 432.366 127.74 435.17C125.873 437.974 122.402 438.824 118.906 437.962C115.41 437.099 110.946 434.842 109.989 430.68C109.032 426.517 108.478 423.665 109.326 419.21L130.803 424.373Z" fill="#263238"/>
<path d="M114.503 389.544C113.058 389.388 113.368 396.019 112.462 402.481C111.49 409.408 110.385 412.147 109.522 417.826C108.537 424.314 109.659 427.229 112.06 431.183C114.46 435.138 123.074 439.081 127.405 433.499C130.936 428.948 131.137 423.862 130.895 417.371C130.643 410.66 131.397 406.164 132.041 401.102C132.708 395.865 133.889 391.29 132.64 390.735C132.535 391.449 131.704 394.96 131.358 395.781C131.207 396.141 130.638 397.038 130.431 395.679C130.37 395.276 130.513 394.347 130.481 393.947C130.39 392.823 129.661 392.629 129.188 392.378C128.167 391.835 125.87 391.1 123.048 391.057C120.227 391.014 117.788 390.902 116.206 391.635C115.254 392.076 115.27 392.915 115.157 393.735C115.023 394.712 114.999 395.316 114.744 395.118C114.232 394.72 114.503 389.544 114.503 389.544Z" fill="#37474F"/>
<path d="M109.078 421.587C108.783 425.619 109.787 428.394 111.666 431.489C114.066 435.444 123.377 439.407 127.708 433.825C129.863 431.048 130.47 427.744 130.8 424.37C128.293 420.006 113.154 417.938 109.078 421.587Z" fill="#FAFAFA"/>
<path d="M127.731 417.272C127.671 417.265 127.612 417.251 127.554 417.224C127.496 417.198 120.843 414.556 114.322 415.889C114.034 415.943 113.748 415.777 113.683 415.508C113.62 415.239 113.803 414.973 114.092 414.914C120.989 413.507 127.773 416.214 128.027 416.328C128.292 416.451 128.401 416.749 128.272 416.996C128.169 417.19 127.949 417.295 127.731 417.272Z" fill="#F5F5F5"/>
<path d="M114.7 411.05C114.498 411.029 114.317 410.901 114.249 410.71C114.158 410.447 114.311 410.165 114.591 410.08C121.089 408.105 128.24 411.245 128.509 411.38C128.77 411.51 128.868 411.812 128.727 412.055C128.586 412.297 128.257 412.382 128.002 412.257C127.942 412.228 120.972 409.184 114.926 411.029C114.851 411.052 114.775 411.058 114.7 411.05Z" fill="#F5F5F5"/>
<path d="M114.98 406.486C114.782 406.465 114.604 406.341 114.534 406.154C114.437 405.892 114.585 405.608 114.864 405.519C122.012 403.218 128.795 406.638 129.047 406.784C129.298 406.93 129.376 407.237 129.219 407.471C129.063 407.705 128.726 407.777 128.482 407.631C128.426 407.598 121.87 404.323 115.217 406.462C115.137 406.487 115.057 406.494 114.98 406.486Z" fill="#F5F5F5"/>
<path d="M115.385 401.994C115.19 401.974 115.013 401.852 114.941 401.669C114.84 401.41 114.983 401.124 115.261 401.03C121.961 398.773 129.264 402.282 129.538 402.435C129.793 402.573 129.877 402.88 129.727 403.117C129.578 403.355 129.25 403.437 128.994 403.292C128.931 403.258 121.849 399.87 115.627 401.966C115.547 401.994 115.465 402.003 115.385 401.994Z" fill="#EBEBEB"/>
<path d="M123.573 221.271C122.094 234.859 121.592 238.206 120.564 268.399C119.568 297.679 119.558 301.968 119.382 305.498C118.979 313.594 113.989 316.832 113.592 335.913C113.227 353.4 113.883 374.817 113.883 374.817C113.883 374.817 117.326 377.768 124.49 378.129C131.099 378.462 135.767 376.052 135.767 376.052C135.767 376.052 145.354 336.857 148.365 324.809C151.91 310.626 157.662 285.938 157.662 285.938C157.662 285.938 160.553 307.963 161.637 315.059C162.671 321.83 160.17 324.469 161.74 339.633C162.991 351.717 166.709 371.924 166.709 371.924C166.709 371.924 171.785 374.551 177.419 374.309C185.614 373.957 188.201 371.351 188.201 371.351C188.201 371.351 192.791 326.151 192.834 308.859C192.88 290.558 191.859 248.372 190.893 221.426L123.573 221.271Z" fill="#455A64"/>
<path d="M157.661 285.937L161.865 255.524C161.865 255.524 172.513 252.529 179.157 245.584C178.835 250.608 169.519 257.346 165.081 258.492L160.124 285.481L161.635 315.057L157.661 285.937Z" fill="#37474F"/>
<path d="M142.868 225.325C141.277 227.861 140.114 230.61 139.14 233.392C138.156 236.177 137.411 239.026 136.774 241.889C136.173 244.759 135.694 247.649 135.4 250.559C135.097 253.465 134.931 256.394 135.112 259.324C135.753 256.456 136.343 253.612 136.93 250.765C137.532 247.923 138.088 245.078 138.715 242.249C139.305 239.414 139.957 236.593 140.624 233.772C141.308 230.954 142.036 228.15 142.868 225.325Z" fill="#37474F"/>
<path d="M138.805 226.517C137.271 227.912 135.939 229.465 134.726 231.091C133.502 232.713 132.434 234.432 131.463 236.197C130.524 237.978 129.681 239.809 129.051 241.712C128.411 243.607 127.938 245.568 127.833 247.564L130.49 242.235C131.393 240.488 132.287 238.745 133.233 237.021C134.147 235.283 135.114 233.568 136.048 231.825C136.994 230.088 137.945 228.346 138.805 226.517Z" fill="#37474F"/>
<path d="M145.353 260.119C144.343 269.224 143.47 278.338 142.589 287.44C141.674 296.539 139.713 306.62 138.262 315.631C136.762 324.633 129.85 360.085 128.705 369.173C130.611 360.19 138.674 324.971 140.219 315.901C141.642 306.813 143.521 296.687 144.123 287.55C144.746 278.414 145.106 269.27 145.353 260.119Z" fill="#37474F"/>
<path d="M182.084 259.726L183.105 283.607C183.244 287.586 183.421 291.561 183.518 295.537C183.616 299.506 183.772 303.498 183.606 307.418C183.423 311.354 182.226 349.429 182.608 357.411C183.83 348.555 185.098 315.505 185.583 307.49C185.753 299.429 185.213 291.497 184.641 283.53C184.044 275.574 183.211 267.632 182.084 259.726Z" fill="#37474F"/>
<path d="M165.745 367.268L166.962 375.635C166.962 375.635 171.449 377.689 178.959 377.242C186.469 376.794 188.206 374.413 188.206 374.413L188.945 366.483C188.945 366.483 186.119 368.533 179.246 368.813C170.358 369.173 165.745 367.268 165.745 367.268Z" fill="#37474F"/>
<path d="M113.481 368.942L113.76 377.3C113.76 377.3 117.312 379.972 124.802 380.651C132.292 381.33 135.599 378.835 135.599 378.835L137.147 371.454C137.147 371.454 133.39 372.935 126.537 372.374C119.685 371.813 113.481 368.942 113.481 368.942Z" fill="#37474F"/>
<path d="M258.946 182.92C255.494 184.52 240.593 191.389 224.384 195.543C216.024 197.685 210.733 194.367 205.409 190.569C198.008 185.288 190.504 179.116 181.721 170.475C177.214 159.336 177.126 146.891 179.211 141.169C188.943 142.009 192.447 146.596 199.856 153.647C207.265 160.698 219.588 173.361 219.588 173.361C219.588 173.361 246.966 169.295 248.579 168.817C251.096 168.071 252.138 167.696 252.95 166.14C253.79 164.531 254.361 162.798 255.006 161.1C255.901 158.743 256.944 156.442 258.125 154.215C258.87 152.81 259.595 151.39 260.45 150.047C261.14 148.964 262.065 147.346 263.316 146.836C264.034 146.543 264.743 146.84 265.427 147.082C266.041 146.365 266.713 145.697 267.435 145.087C267.785 144.791 268.16 144.502 268.604 144.389C269.223 144.231 269.925 144.468 270.322 144.969C271.048 144.395 271.874 143.813 272.798 143.858C273.711 143.903 274.541 144.649 274.682 145.553C274.78 146.178 274.581 146.836 274.761 147.443C274.911 147.949 275.301 148.342 275.574 148.793C276.409 150.174 276.038 151.687 275.386 153.027C274.352 155.156 273.045 157.121 271.908 159.185C271.074 160.7 270.322 162.26 269.675 163.864C269.469 164.373 268.723 165.63 268.869 166.175C269.052 166.862 270.112 166.573 270.541 166.345C271.667 165.746 272.589 164.835 273.603 164.06C274.616 163.286 275.807 162.622 277.082 162.658C277.314 162.665 277.557 162.699 277.745 162.834C278.243 163.192 278.081 163.964 277.836 164.526C276.637 167.282 274.679 169.522 272.872 171.882C270.915 174.437 268.575 176.913 265.98 178.826C264.781 179.715 262.398 181.32 258.946 182.92Z" fill="#FFD4AC"/>
<path d="M274.359 147.476C273.818 147.241 273.512 147.145 272.986 147.472C272.457 147.801 272.083 148.354 271.71 148.841C270.775 150.06 269.983 151.372 269.249 152.719C268.508 154.08 267.793 155.455 267.062 156.821C266.364 158.126 265.642 159.405 265.287 160.85C265.272 160.909 265.323 161.021 265.374 160.927C266.041 159.704 266.608 158.431 267.27 157.203C267.926 155.984 268.58 154.764 269.249 153.552C269.903 152.366 270.62 151.24 271.436 150.159C271.847 149.614 272.266 149.066 272.729 148.563C273.053 148.211 273.758 147.549 274.324 147.636C274.389 147.648 274.414 147.5 274.359 147.476Z" fill="#F28F8F"/>
<path d="M270.214 145.029C268.099 146.995 266.451 149.568 265.024 152.063C263.582 154.582 262.766 156.247 261.864 159.149C261.853 159.185 261.886 159.195 261.9 159.16C263.023 156.478 264.007 154.693 265.442 152.233C266.883 149.763 268.686 147.574 270.288 145.217C270.322 145.164 270.305 144.944 270.214 145.029Z" fill="#F28F8F"/>
<path d="M264.97 147.368C263.646 148.91 262.569 150.664 261.608 152.453C261.098 153.403 260.617 154.37 260.169 155.351C259.695 156.39 259.12 157.481 258.946 158.619C258.937 158.678 259 158.78 259.055 158.703C259.655 157.858 259.953 156.757 260.379 155.814C260.824 154.828 261.301 153.857 261.81 152.903C262.806 151.037 263.926 149.244 264.992 147.419C265.003 147.401 264.998 147.337 264.97 147.368Z" fill="#F28F8F"/>
<path d="M178.895 140.701C190.727 142.928 191.079 144.646 199.121 152.465C208.176 161.269 219.64 173.099 219.64 173.099L236.051 170.475C236.051 170.475 240.582 175.025 241.555 179.856C243.005 187.054 242.049 190.127 242.049 190.127C242.049 190.127 232.17 194.236 225.301 195.849C218.194 197.519 215.52 197.635 208.957 193.672C194.78 185.112 181.304 170.789 181.304 170.789C181.304 170.789 173.869 154.058 178.895 140.701Z" fill="#455A64"/>
<path d="M190.471 174.051C190.326 153.36 184.506 143.114 178.934 140.685C175.809 139.887 159.266 137.869 150.883 139.034C138.852 140.705 130.98 144.869 121.96 151.455C114.981 164.776 123.201 178.197 123.461 197.491C123.666 212.691 123.14 216.366 122.07 233.148C135.419 244.396 183.098 243.798 191.393 229.406C191.268 213.13 190.638 197.828 190.471 174.051Z" fill="#FFD12E"/>
<path d="M145.096 131.663C144.102 126.683 138.972 121.606 136.603 117.308C134.319 113.164 132.937 109.937 133.067 105.976C133.144 103.629 134.529 100.412 136.246 99.695C133.985 91.047 140.402 86.818 143.847 85.892C145.169 85.537 147.351 84.983 148.608 84.414C150.471 83.571 150.854 82.041 152.337 80.706C154.891 78.407 159.299 78.229 161.076 81.546C162.753 79.242 165.119 79.232 167.87 79.847C170.493 80.434 171.792 82.606 171.596 85.014C175.187 82.865 178.613 85.346 179.01 87.484C179.303 89.06 179.005 90.406 180.082 91.795C181.296 93.359 183.502 93.268 184.134 91.958C184.577 94.197 183.747 95.9371 181.304 95.8831C182.18 97.0771 182.445 98.668 182.064 100.158C181.546 102.178 179.564 103.414 177.942 103.496C177.719 104.738 177.699 105.871 176.954 106.957C176.238 108.002 175.299 109.045 174.157 109.63C170.514 111.497 166.445 112.188 162.49 113.126C160.925 113.498 159.36 113.869 157.796 114.241C157.523 114.306 156.099 114.433 155.937 114.683C155.939 114.682 145.096 131.663 145.096 131.663Z" fill="#263238"/>
<path d="M138.846 125.366C142.425 127.365 144.742 125.022 144.742 125.022L145.424 140.1C147.913 147.361 156.529 152.146 162.7 151.602C169.875 150.969 170.307 145.932 165.347 140.458L165.416 135.959C165.416 135.959 168.912 135.898 171.253 135.5C175.16 134.849 178.021 131.582 179.017 127.301C180.059 122.827 180.131 115.744 179.012 110.449C178.726 109.097 178.578 107.712 178.681 106.334C178.954 102.674 178.235 100.569 177.204 97.5311C172.786 94.1771 162.767 93.2821 153.619 99.2111C154.854 104.72 152.827 109.173 148.858 111.401C149.089 112.891 149.385 116.666 146.924 116.667C145.151 116.667 144.969 114.448 143.094 112.544C141.181 110.599 136.958 110.235 135.398 113.169C133.218 117.274 134.926 123.175 138.846 125.366Z" fill="#FFD4AC"/>
<path d="M165.417 135.959C159.173 135.404 154.317 134.842 150.945 130.426C148.83 127.656 146.982 123.157 146.982 123.157C146.982 123.157 147.778 128.65 149.917 132.326C151.566 135.159 155.587 137.633 165.368 138.192L165.417 135.959Z" fill="#F28F8F"/>
<path d="M162.096 111.995C162.109 113 161.336 113.823 160.368 113.834C159.4 113.844 158.605 113.037 158.592 112.032C158.579 111.026 159.352 110.204 160.32 110.193C161.288 110.184 162.083 110.99 162.096 111.995Z" fill="#263238"/>
<path d="M161.459 106.262L157.541 107.987C157.087 106.865 157.596 105.569 158.678 105.093C159.76 104.617 161.005 105.141 161.459 106.262Z" fill="#263238"/>
<path d="M176.479 106.455L172.29 105.426C172.532 104.25 173.667 103.526 174.824 103.81C175.98 104.094 176.721 105.278 176.479 106.455Z" fill="#263238"/>
<path d="M175.952 110.651C175.965 111.656 175.192 112.479 174.224 112.489C173.257 112.499 172.462 111.693 172.448 110.688C172.434 109.683 173.208 108.859 174.175 108.849C175.143 108.839 175.939 109.645 175.952 110.651Z" fill="#263238"/>
<path d="M174.305 117.758L167.824 120.951L166.688 108.371L174.305 117.758Z" fill="#F28F8F"/>
<path d="M161.551 122.532L168.639 124.961C168.004 126.991 165.901 128.093 163.943 127.422C161.985 126.751 160.915 124.563 161.551 122.532Z" fill="#B16668"/>
<path d="M162.288 123.823C161.983 123.753 161.682 123.729 161.386 123.727C161.386 125.358 162.37 126.882 163.943 127.422C164.338 127.557 164.737 127.603 165.13 127.6C165.441 125.939 164.199 124.264 162.288 123.823Z" fill="#F28F8F"/>
<path d="M200.409 194.555C202.922 194.422 205.759 193.654 208.121 192.982C210.174 192.398 212.39 192.27 214.509 192.058C216.744 191.835 218.985 191.677 221.219 191.442C221.781 191.383 222.009 191.905 222.041 192.411C222.1 193.349 221.606 194.26 220.909 194.892C220.213 195.524 219.332 195.914 218.446 196.229C217.653 196.511 216.842 196.741 216.019 196.918C215.16 197.103 213.113 197.517 213.577 198.786L200.409 194.555Z" fill="#FFD4AC"/>
<path d="M200.409 194.555C202.181 194.599 203.633 194.52 205.607 193.9C206.42 193.596 207.384 193.411 208.205 193.211C209.027 192.996 210.021 192.909 210.873 192.798C212.574 192.569 214.323 192.429 216.047 192.196C217.775 191.979 219.501 191.751 221.219 191.443C219.47 191.453 217.73 191.543 215.992 191.644C214.252 191.747 212.528 191.866 210.776 192.084C209.905 192.212 209.031 192.366 208.175 192.615C207.313 192.869 206.457 193.05 205.605 193.367C204.753 193.684 204.51 193.743 203.44 194.067C202.368 194.391 201.273 194.419 200.409 194.555Z" fill="#F28F8F"/>
<path d="M122.249 152.43C128.148 151.463 135.151 155.085 141.848 163.965L162.196 190.425C162.196 190.425 178.912 192.773 186.954 193.721C196.272 194.821 197.651 194.734 200.41 194.555L213.578 198.787C213.915 199.708 215.62 200.45 216.41 200.924C220.803 203.557 227.991 204.054 230.808 204.369C233.624 204.684 233.97 205.711 233.254 206.812C233.015 207.179 232.275 207.466 231.308 207.695C232.881 207.798 234.183 208.124 234.682 208.995C235.312 210.095 233.512 210.69 232.706 210.885C231.719 211.124 230.583 211.423 230.583 211.423C230.909 211.853 230.769 212.597 230.604 212.872C230.429 213.165 229.82 213.571 229.514 213.721C227.473 214.719 224.843 214.68 223.025 214.617C224.486 215.045 225.186 215.017 225.79 215.441C226.213 215.738 226.43 216.172 226.257 216.659C226.052 217.236 223.489 217.519 222.877 217.554C217.918 217.833 218.008 217.637 215.168 216.851C213.825 216.479 211.41 215.627 210.179 214.973C209.162 214.433 207.409 213.545 205.908 212.651C202.078 210.368 199.22 209.975 197.475 210.044C184.129 210.57 177.598 210.623 161.721 210.92C153.254 211.079 150.728 208.286 145.746 202.399C140.488 196.186 135.143 190.166 126.617 180.225C120.473 173.063 116.86 164.011 122.249 152.43Z" fill="#FFD4AC"/>
<path d="M230.581 211.422C227.952 211.667 225.319 212.047 222.731 211.784C221.438 211.674 220.218 211.257 218.969 210.807L215.229 209.507C216.387 210.152 217.592 210.708 218.817 211.213C220.037 211.68 221.322 212.197 222.68 212.279C225.371 212.507 228.016 212.033 230.581 211.422Z" fill="#F28F8F"/>
<path d="M230.979 207.85C228.35 208.095 225.718 208.476 223.129 208.212C221.836 208.102 220.616 207.685 219.368 207.236L215.628 205.936C216.786 206.581 217.99 207.137 219.216 207.642C220.436 208.109 221.721 208.626 223.079 208.708C225.769 208.934 228.413 208.46 230.979 207.85Z" fill="#F28F8F"/>
<path d="M223.023 214.617C221.641 214.385 220.309 214.11 219.005 213.677C217.685 213.302 216.412 212.768 215.062 212.382C216.234 213.155 217.518 213.726 218.854 214.167C220.201 214.553 221.624 214.809 223.023 214.617Z" fill="#F28F8F"/>
<path d="M125.858 148.724C119.549 152.497 117.809 156.181 117.024 159.108C116.216 162.121 115.793 169.669 121.586 177.578C127.38 185.487 146.185 204.186 149.577 207.355C152.836 210.399 152.956 211.429 160.044 211.326C167.479 211.218 173.112 210.798 173.112 210.798C173.112 210.798 170.166 206.979 170.806 200.611C171.446 194.243 174.242 191.618 174.242 191.618L162.525 189.812C162.525 189.812 150.443 173.876 143.682 165.132C136.921 156.388 131.999 150.898 125.858 148.724Z" fill="#455A64"/>
</svg>
